<svg xmlns="http://www.w3.org/2000/svg" width="404" height="521" style="background-color: white;">
<text x="354.0" y="30.0" font-family="Arial" font-size="12" font-weight="bold" fill="#333" text-anchor="end">23-Jul-2026</text>
<path d="M 202.0 118.0 L 202.0 138.0 L 202.0 138.0 L 202.0 158.0" fill="none" stroke="#8ab4f8" stroke-width="3"/>
<path d="M 202.0 188.0 L 202.0 208.0 L 114.0 208.0 L 114.0 295.0" fill="none" stroke="#8ab4f8" stroke-width="3"/>
<path d="M 202.0 188.0 L 202.0 208.0 L 290.0 208.0 L 290.0 295.0" fill="none" stroke="#8ab4f8" stroke-width="3"/>
<path d="M 290.0 325.0 L 290.0 345.0 L 290.0 345.0 L 290.0 393.0" fill="none" stroke="#8ab4f8" stroke-width="3"/>
<rect x="138.0" y="50.0" width="128" height="68.0" fill="#ADD8E6" stroke="#87CEEB" stroke-width="2" rx="5" ry="5"/>
<text x="202.0" y="70.0" font-family="Arial" font-size="12" font-weight="bold" fill="#333" text-anchor="middle">Group 10</text>
<text x="202.0" y="88.0" font-family="Arial" font-size="12" fill="#333" text-anchor="middle">6 kits</text>
<text x="202.0" y="106.0" font-family="Arial" font-size="12" fill="#333" text-anchor="middle">Haplogroup E</text>
<text x="256.0" y="132.0" font-family="Arial" font-size="11" fill="#555" text-anchor="end">6</text>
<rect x="138.0" y="158.0" width="128" height="30.0" fill="#ADD8E6" stroke="#87CEEB" stroke-width="2" rx="5" ry="5"/>
<text x="202.0" y="178.0" font-family="Arial" font-size="12" font-weight="bold" fill="#333" text-anchor="middle">FTG33321.389</text>
<text x="256.0" y="202.0" font-family="Arial" font-size="11" fill="#555" text-anchor="end">6</text>
<rect x="50.0" y="295.0" width="128" height="58.0" fill="#FFFFE0" stroke="#FFC0CB" stroke-width="2" rx="5" ry="5"/>
<text x="60.0" y="311.0" font-family="Arial" font-size="11" fill="#000" text-anchor="start">B711609</text>
<text x="168.0" y="311.0" font-family="Arial" font-size="11" fill="#000" text-anchor="end">803</text>
<text x="60.0" y="327.0" font-family="Arial" font-size="11" fill="#000" text-anchor="start">470236</text>
<text x="168.0" y="327.0" font-family="Arial" font-size="11" fill="#000" text-anchor="end">37</text>
<text x="60.0" y="343.0" font-family="Arial" font-size="11" fill="#000" text-anchor="start">484330</text>
<text x="168.0" y="343.0" font-family="Arial" font-size="11" fill="#000" text-anchor="end">37</text>
<rect x="226.0" y="295.0" width="128" height="30.0" fill="#ADD8E6" stroke="#87CEEB" stroke-width="2" rx="5" ry="5"/>
<text x="290.0" y="315.0" font-family="Arial" font-size="12" font-weight="bold" fill="#333" text-anchor="middle">STR01.419</text>
<text x="236.0" y="285" font-family="monospace" font-size="10" fill="#555" text-anchor="start">449=32-&gt;33</text>
<text x="344.0" y="285" font-family="monospace" font-size="10" fill="#555" text-anchor="end">3</text>
<text x="236.0" y="273" font-family="monospace" font-size="10" fill="#555" text-anchor="start">534=18-&gt;17</text>
<text x="344.0" y="273" font-family="monospace" font-size="10" fill="#555" text-anchor="end">1</text>
<text x="236.0" y="261" font-family="monospace" font-size="10" fill="#555" text-anchor="start">541=11-&gt;12</text>
<text x="344.0" y="261" font-family="monospace" font-size="10" fill="#555" text-anchor="end">1</text>
<text x="236.0" y="249" font-family="monospace" font-size="10" fill="#555" text-anchor="start">112=13-&gt;12</text>
<text x="344.0" y="249" font-family="monospace" font-size="10" fill="#555" text-anchor="end">1</text>
<text x="236.0" y="237" font-family="monospace" font-size="10" fill="#555" text-anchor="start">518u3=17-&gt;16</text>
<text x="344.0" y="237" font-family="monospace" font-size="10" fill="#555" text-anchor="end">1</text>
<text x="236.0" y="225" font-family="monospace" font-size="10" fill="#555" text-anchor="start">627u3=19-&gt;18</text>
<text x="344.0" y="225" font-family="monospace" font-size="10" fill="#555" text-anchor="end">1</text>
<text x="344.0" y="339.0" font-family="Arial" font-size="11" fill="#555" text-anchor="end">3</text>
<rect x="226.0" y="393.0" width="128" height="58.0" fill="#FFFFE0" stroke="#FFC0CB" stroke-width="2" rx="5" ry="5"/>
<text x="236.0" y="409.0" font-family="Arial" font-size="11" fill="#000" text-anchor="start">B94588</text>
<text x="344.0" y="409.0" font-family="Arial" font-size="11" fill="#000" text-anchor="end">795</text>
<text x="236.0" y="425.0" font-family="Arial" font-size="11" fill="#000" text-anchor="start">160102</text>
<text x="344.0" y="425.0" font-family="Arial" font-size="11" fill="#000" text-anchor="end">37</text>
<text x="236.0" y="441.0" font-family="Arial" font-size="11" fill="#000" text-anchor="start">574807</text>
<text x="344.0" y="441.0" font-family="Arial" font-size="11" fill="#000" text-anchor="end">37</text>
</svg>
