<svg xmlns="http://www.w3.org/2000/svg" width="3924" height="1235" style="background-color: white;">
<text x="3874.0" y="30.0" font-family="Arial" font-size="12" font-weight="bold" fill="#333" text-anchor="end">23-Jul-2026</text>
<path d="M 2881.9 118.0 L 2881.9 138.0 L 2881.9 138.0 L 2881.9 158.0" fill="none" stroke="#8ab4f8" stroke-width="3"/>
<path d="M 2881.9 188.0 L 2881.9 208.0 L 2881.9 208.0 L 2881.9 228.0" fill="none" stroke="#8ab4f8" stroke-width="3"/>
<path d="M 2881.9 258.0 L 2881.9 278.0 L 2129.8 278.0 L 2129.8 329.0" fill="none" stroke="#8ab4f8" stroke-width="3"/>
<path d="M 2129.8 359.0 L 2129.8 379.0 L 977.5 379.0 L 977.5 466.0" fill="none" stroke="#8ab4f8" stroke-width="3"/>
<path d="M 977.5 496.0 L 977.5 516.0 L 279.0 516.0 L 279.0 567.0" fill="none" stroke="#8ab4f8" stroke-width="3"/>
<path d="M 279.0 597.0 L 279.0 617.0 L 114.0 617.0 L 114.0 684.0" fill="none" stroke="#8ab4f8" stroke-width="3"/>
<path d="M 114.0 714.0 L 114.0 734.0 L 114.0 734.0 L 114.0 789.0" fill="none" stroke="#8ab4f8" stroke-width="3"/>
<path d="M 279.0 597.0 L 279.0 617.0 L 444.0 617.0 L 444.0 684.0" fill="none" stroke="#8ab4f8" stroke-width="3"/>
<path d="M 444.0 730.0 L 444.0 750.0 L 290.0 750.0 L 290.0 789.0" fill="none" stroke="#8ab4f8" stroke-width="3"/>
<path d="M 444.0 730.0 L 444.0 750.0 L 598.0 750.0 L 598.0 789.0" fill="none" stroke="#8ab4f8" stroke-width="3"/>
<path d="M 598.0 819.0 L 598.0 839.0 L 598.0 839.0 L 598.0 882.0" fill="none" stroke="#8ab4f8" stroke-width="3"/>
<path d="M 598.0 912.0 L 598.0 932.0 L 466.0 932.0 L 466.0 964.0" fill="none" stroke="#8ab4f8" stroke-width="3"/>
<path d="M 598.0 912.0 L 598.0 932.0 L 730.0 932.0 L 730.0 964.0" fill="none" stroke="#8ab4f8" stroke-width="3"/>
<path d="M 730.0 994.0 L 730.0 1014.0 L 642.0 1014.0 L 642.0 1053.0" fill="none" stroke="#8ab4f8" stroke-width="3"/>
<path d="M 730.0 994.0 L 730.0 1014.0 L 818.0 1014.0 L 818.0 1053.0" fill="none" stroke="#8ab4f8" stroke-width="3"/>
<path d="M 818.0 1083.0 L 818.0 1103.0 L 818.0 1103.0 L 818.0 1123.0" fill="none" stroke="#8ab4f8" stroke-width="3"/>
<path d="M 977.5 496.0 L 977.5 516.0 L 1170.0 516.0 L 1170.0 567.0" fill="none" stroke="#8ab4f8" stroke-width="3"/>
<path d="M 1170.0 597.0 L 1170.0 617.0 L 994.0 617.0 L 994.0 684.0" fill="none" stroke="#8ab4f8" stroke-width="3"/>
<path d="M 1170.0 597.0 L 1170.0 617.0 L 1170.0 617.0 L 1170.0 684.0" fill="none" stroke="#8ab4f8" stroke-width="3"/>
<path d="M 1170.0 714.0 L 1170.0 734.0 L 1170.0 734.0 L 1170.0 789.0" fill="none" stroke="#8ab4f8" stroke-width="3"/>
<path d="M 1170.0 597.0 L 1170.0 617.0 L 1346.0 617.0 L 1346.0 684.0" fill="none" stroke="#8ab4f8" stroke-width="3"/>
<path d="M 1346.0 714.0 L 1346.0 734.0 L 1346.0 734.0 L 1346.0 789.0" fill="none" stroke="#8ab4f8" stroke-width="3"/>
<path d="M 977.5 496.0 L 977.5 516.0 L 1676.0 516.0 L 1676.0 567.0" fill="none" stroke="#8ab4f8" stroke-width="3"/>
<path d="M 1676.0 597.0 L 1676.0 617.0 L 1522.0 617.0 L 1522.0 684.0" fill="none" stroke="#8ab4f8" stroke-width="3"/>
<path d="M 1522.0 714.0 L 1522.0 734.0 L 1522.0 734.0 L 1522.0 789.0" fill="none" stroke="#8ab4f8" stroke-width="3"/>
<path d="M 1676.0 597.0 L 1676.0 617.0 L 1830.0 617.0 L 1830.0 684.0" fill="none" stroke="#8ab4f8" stroke-width="3"/>
<path d="M 1830.0 730.0 L 1830.0 750.0 L 1698.0 750.0 L 1698.0 789.0" fill="none" stroke="#8ab4f8" stroke-width="3"/>
<path d="M 1830.0 730.0 L 1830.0 750.0 L 1962.0 750.0 L 1962.0 789.0" fill="none" stroke="#8ab4f8" stroke-width="3"/>
<path d="M 1962.0 835.0 L 1962.0 855.0 L 1874.0 855.0 L 1874.0 882.0" fill="none" stroke="#8ab4f8" stroke-width="3"/>
<path d="M 1962.0 835.0 L 1962.0 855.0 L 2050.0 855.0 L 2050.0 882.0" fill="none" stroke="#8ab4f8" stroke-width="3"/>
<path d="M 2050.0 912.0 L 2050.0 932.0 L 2050.0 932.0 L 2050.0 964.0" fill="none" stroke="#8ab4f8" stroke-width="3"/>
<path d="M 2129.8 359.0 L 2129.8 379.0 L 2556.0 379.0 L 2556.0 466.0" fill="none" stroke="#8ab4f8" stroke-width="3"/>
<path d="M 2556.0 496.0 L 2556.0 516.0 L 2358.0 516.0 L 2358.0 567.0" fill="none" stroke="#8ab4f8" stroke-width="3"/>
<path d="M 2358.0 597.0 L 2358.0 617.0 L 2226.0 617.0 L 2226.0 684.0" fill="none" stroke="#8ab4f8" stroke-width="3"/>
<path d="M 2358.0 597.0 L 2358.0 617.0 L 2490.0 617.0 L 2490.0 684.0" fill="none" stroke="#8ab4f8" stroke-width="3"/>
<path d="M 2490.0 730.0 L 2490.0 750.0 L 2490.0 750.0 L 2490.0 789.0" fill="none" stroke="#8ab4f8" stroke-width="3"/>
<path d="M 2490.0 819.0 L 2490.0 839.0 L 2402.0 839.0 L 2402.0 882.0" fill="none" stroke="#8ab4f8" stroke-width="3"/>
<path d="M 2490.0 819.0 L 2490.0 839.0 L 2578.0 839.0 L 2578.0 882.0" fill="none" stroke="#8ab4f8" stroke-width="3"/>
<path d="M 2578.0 912.0 L 2578.0 932.0 L 2578.0 932.0 L 2578.0 964.0" fill="none" stroke="#8ab4f8" stroke-width="3"/>
<path d="M 2556.0 496.0 L 2556.0 516.0 L 2754.0 516.0 L 2754.0 567.0" fill="none" stroke="#8ab4f8" stroke-width="3"/>
<path d="M 2754.0 597.0 L 2754.0 617.0 L 2754.0 617.0 L 2754.0 684.0" fill="none" stroke="#8ab4f8" stroke-width="3"/>
<path d="M 2129.8 359.0 L 2129.8 379.0 L 2930.0 379.0 L 2930.0 466.0" fill="none" stroke="#8ab4f8" stroke-width="3"/>
<path d="M 2930.0 496.0 L 2930.0 516.0 L 2930.0 516.0 L 2930.0 567.0" fill="none" stroke="#8ab4f8" stroke-width="3"/>
<path d="M 2129.8 359.0 L 2129.8 379.0 L 3106.0 379.0 L 3106.0 466.0" fill="none" stroke="#8ab4f8" stroke-width="3"/>
<path d="M 3106.0 496.0 L 3106.0 516.0 L 3106.0 516.0 L 3106.0 567.0" fill="none" stroke="#8ab4f8" stroke-width="3"/>
<path d="M 3106.0 597.0 L 3106.0 617.0 L 3106.0 617.0 L 3106.0 684.0" fill="none" stroke="#8ab4f8" stroke-width="3"/>
<path d="M 2129.8 359.0 L 2129.8 379.0 L 3282.0 379.0 L 3282.0 466.0" fill="none" stroke="#8ab4f8" stroke-width="3"/>
<path d="M 3282.0 496.0 L 3282.0 516.0 L 3282.0 516.0 L 3282.0 567.0" fill="none" stroke="#8ab4f8" stroke-width="3"/>
<path d="M 2881.9 258.0 L 2881.9 278.0 L 3634.0 278.0 L 3634.0 329.0" fill="none" stroke="#8ab4f8" stroke-width="3"/>
<path d="M 3634.0 359.0 L 3634.0 379.0 L 3458.0 379.0 L 3458.0 466.0" fill="none" stroke="#8ab4f8" stroke-width="3"/>
<path d="M 3458.0 496.0 L 3458.0 516.0 L 3458.0 516.0 L 3458.0 567.0" fill="none" stroke="#8ab4f8" stroke-width="3"/>
<path d="M 3634.0 359.0 L 3634.0 379.0 L 3634.0 379.0 L 3634.0 466.0" fill="none" stroke="#8ab4f8" stroke-width="3"/>
<path d="M 3634.0 496.0 L 3634.0 516.0 L 3634.0 516.0 L 3634.0 567.0" fill="none" stroke="#8ab4f8" stroke-width="3"/>
<path d="M 3634.0 597.0 L 3634.0 617.0 L 3634.0 617.0 L 3634.0 684.0" fill="none" stroke="#8ab4f8" stroke-width="3"/>
<path d="M 3634.0 359.0 L 3634.0 379.0 L 3810.0 379.0 L 3810.0 466.0" fill="none" stroke="#8ab4f8" stroke-width="3"/>
<path d="M 3810.0 496.0 L 3810.0 516.0 L 3810.0 516.0 L 3810.0 567.0" fill="none" stroke="#8ab4f8" stroke-width="3"/>
<rect x="2817.9" y="50.0" width="128" height="68.0" fill="#ADD8E6" stroke="#87CEEB" stroke-width="2" rx="5" ry="5"/>
<text x="2881.9" y="70.0" font-family="Arial" font-size="12" font-weight="bold" fill="#333" text-anchor="middle">Group 1</text>
<text x="2881.9" y="88.0" font-family="Arial" font-size="12" fill="#333" text-anchor="middle">40 kits</text>
<text x="2881.9" y="106.0" font-family="Arial" font-size="12" fill="#333" text-anchor="middle">Haplogroup R</text>
<text x="2935.9" y="132.0" font-family="Arial" font-size="11" fill="#555" text-anchor="end">40</text>
<rect x="2817.9" y="158.0" width="128" height="30.0" fill="#ADD8E6" stroke="#87CEEB" stroke-width="2" rx="5" ry="5"/>
<text x="2881.9" y="178.0" font-family="Arial" font-size="12" font-weight="bold" fill="#333" text-anchor="middle">BY17509.1542</text>
<text x="2935.9" y="202.0" font-family="Arial" font-size="11" fill="#555" text-anchor="end">40</text>
<rect x="2817.9" y="228.0" width="128" height="30.0" fill="#ADD8E6" stroke="#87CEEB" stroke-width="2" rx="5" ry="5"/>
<text x="2881.9" y="248.0" font-family="Arial" font-size="12" font-weight="bold" fill="#333" text-anchor="middle">A17284.1595</text>
<text x="2935.9" y="272.0" font-family="Arial" font-size="11" fill="#555" text-anchor="end">40</text>
<rect x="2065.8" y="329.0" width="128" height="30.0" fill="#ADD8E6" stroke="#87CEEB" stroke-width="2" rx="5" ry="5"/>
<text x="2129.8" y="349.0" font-family="Arial" font-size="12" font-weight="bold" fill="#333" text-anchor="middle">A17452.1630</text>
<text x="2075.8" y="319" font-family="monospace" font-size="10" fill="#555" text-anchor="start">570=17-&gt;18</text>
<text x="2183.8" y="319" font-family="monospace" font-size="10" fill="#555" text-anchor="end">28</text>
<text x="2075.8" y="307" font-family="monospace" font-size="10" fill="#555" text-anchor="start">549=14-&gt;15</text>
<text x="2183.8" y="307" font-family="monospace" font-size="10" fill="#555" text-anchor="end">20</text>
<text x="2075.8" y="295" font-family="monospace" font-size="10" fill="#555" text-anchor="start">651=11-&gt;10</text>
<text x="2183.8" y="295" font-family="monospace" font-size="10" fill="#555" text-anchor="end">20</text>
<text x="2183.8" y="373.0" font-family="Arial" font-size="11" fill="#555" text-anchor="end">32</text>
<rect x="913.5" y="466.0" width="128" height="30.0" fill="#ADD8E6" stroke="#87CEEB" stroke-width="2" rx="5" ry="5"/>
<text x="977.5" y="486.0" font-family="Arial" font-size="12" font-weight="bold" fill="#333" text-anchor="middle">ThomasNeely.1695</text>
<text x="923.5" y="456" font-family="monospace" font-size="10" fill="#555" text-anchor="start">549=15-&gt;14</text>
<text x="1031.5" y="456" font-family="monospace" font-size="10" fill="#555" text-anchor="end">2</text>
<text x="1031.5" y="510.0" font-family="Arial" font-size="11" fill="#555" text-anchor="end">18</text>
<rect x="215.0" y="567.0" width="128" height="30.0" fill="#ADD8E6" stroke="#87CEEB" stroke-width="2" rx="5" ry="5"/>
<text x="279.0" y="587.0" font-family="Arial" font-size="12" font-weight="bold" fill="#333" text-anchor="middle">SamuelNeely.1722</text>
<text x="225.0" y="557" font-family="monospace" font-size="10" fill="#555" text-anchor="start">627u3=22-&gt;21</text>
<text x="333.0" y="557" font-family="monospace" font-size="10" fill="#555" text-anchor="end">3</text>
<text x="333.0" y="611.0" font-family="Arial" font-size="11" fill="#555" text-anchor="end">7</text>
<rect x="50.0" y="684.0" width="128" height="30.0" fill="#ADD8E6" stroke="#87CEEB" stroke-width="2" rx="5" ry="5"/>
<text x="114.0" y="704.0" font-family="Arial" font-size="12" font-weight="bold" fill="#333" text-anchor="middle">WilliamNeely.1809</text>
<text x="168.0" y="728.0" font-family="Arial" font-size="11" fill="#555" text-anchor="end">2</text>
<rect x="50.0" y="789.0" width="128" height="42.0" fill="#FFFFE0" stroke="#FFC0CB" stroke-width="2" rx="5" ry="5"/>
<text x="60.0" y="805.0" font-family="Arial" font-size="11" fill="#000" text-anchor="start">727515</text>
<text x="168.0" y="805.0" font-family="Arial" font-size="11" fill="#000" text-anchor="end">794</text>
<text x="60.0" y="821.0" font-family="Arial" font-size="11" fill="#000" text-anchor="start">N8310</text>
<text x="168.0" y="821.0" font-family="Arial" font-size="11" fill="#000" text-anchor="end">37</text>
<text x="60.0" y="845.0" font-family="Arial" font-size="11" fill="red" text-anchor="start">PA</text>
<rect x="380.0" y="684.0" width="128" height="46.0" fill="#ADD8E6" stroke="#87CEEB" stroke-width="2" rx="5" ry="5"/>
<text x="444.0" y="704.0" font-family="Arial" font-size="12" font-weight="bold" fill="#333" text-anchor="middle">A17286.1745</text>
<text x="444.0" y="722.0" font-family="Arial" font-size="12" font-weight="bold" fill="#333" text-anchor="middle">ThomasNeely.1745</text>
<text x="498.0" y="744.0" font-family="Arial" font-size="11" fill="#555" text-anchor="end">5</text>
<rect x="226.0" y="789.0" width="128" height="30.0" fill="#FFFFE0" stroke="#FFC0CB" stroke-width="2" rx="5" ry="5"/>
<text x="236.0" y="805.0" font-family="Arial" font-size="11" fill="#000" text-anchor="start">94015</text>
<text x="344.0" y="805.0" font-family="Arial" font-size="11" fill="#000" text-anchor="end">806</text>
<text x="236.0" y="833.0" font-family="Arial" font-size="11" fill="red" text-anchor="start">PA</text>
<rect x="534.0" y="789.0" width="128" height="30.0" fill="#ADD8E6" stroke="#87CEEB" stroke-width="2" rx="5" ry="5"/>
<text x="598.0" y="809.0" font-family="Arial" font-size="12" font-weight="bold" fill="#333" text-anchor="middle">BY204995.1810</text>
<text x="544.0" y="779" font-family="monospace" font-size="10" fill="#555" text-anchor="start">549=14-&gt;15</text>
<text x="652.0" y="779" font-family="monospace" font-size="10" fill="#555" text-anchor="end">2</text>
<text x="652.0" y="833.0" font-family="Arial" font-size="11" fill="#555" text-anchor="end">4</text>
<rect x="534.0" y="882.0" width="128" height="30.0" fill="#ADD8E6" stroke="#87CEEB" stroke-width="2" rx="5" ry="5"/>
<text x="598.0" y="902.0" font-family="Arial" font-size="12" font-weight="bold" fill="#333" text-anchor="middle">MarionNeely.1862</text>
<text x="652.0" y="926.0" font-family="Arial" font-size="11" fill="#555" text-anchor="end">4</text>
<rect x="402.0" y="964.0" width="128" height="30.0" fill="#FFFFE0" stroke="#FFC0CB" stroke-width="2" rx="5" ry="5"/>
<text x="412.0" y="980.0" font-family="Arial" font-size="11" fill="#000" text-anchor="start">B105877</text>
<text x="520.0" y="980.0" font-family="Arial" font-size="11" fill="#000" text-anchor="end">809</text>
<text x="412.0" y="1008.0" font-family="Arial" font-size="11" fill="red" text-anchor="start">PA</text>
<rect x="666.0" y="964.0" width="128" height="30.0" fill="#ADD8E6" stroke="#87CEEB" stroke-width="2" rx="5" ry="5"/>
<text x="730.0" y="984.0" font-family="Arial" font-size="12" font-weight="bold" fill="#333" text-anchor="middle">GeorgeNeely.1901</text>
<text x="784.0" y="1008.0" font-family="Arial" font-size="11" fill="#555" text-anchor="end">3</text>
<rect x="578.0" y="1053.0" width="128" height="30.0" fill="#FFFFE0" stroke="#FFC0CB" stroke-width="2" rx="5" ry="5"/>
<text x="588.0" y="1069.0" font-family="Arial" font-size="11" fill="#000" text-anchor="start">89464</text>
<text x="696.0" y="1069.0" font-family="Arial" font-size="11" fill="#000" text-anchor="end">37</text>
<text x="588.0" y="1097.0" font-family="Arial" font-size="11" fill="red" text-anchor="start">PA</text>
<rect x="754.0" y="1053.0" width="128" height="30.0" fill="#ADD8E6" stroke="#87CEEB" stroke-width="2" rx="5" ry="5"/>
<text x="818.0" y="1073.0" font-family="Arial" font-size="12" font-weight="bold" fill="#333" text-anchor="middle">TaylorNeely.1926</text>
<text x="764.0" y="1043" font-family="monospace" font-size="10" fill="#555" text-anchor="start">570=18-&gt;19</text>
<text x="872.0" y="1043" font-family="monospace" font-size="10" fill="#555" text-anchor="end">2</text>
<text x="872.0" y="1097.0" font-family="Arial" font-size="11" fill="#555" text-anchor="end">2</text>
<rect x="754.0" y="1123.0" width="128" height="42.0" fill="#FFFFE0" stroke="#FFC0CB" stroke-width="2" rx="5" ry="5"/>
<text x="764.0" y="1139.0" font-family="Arial" font-size="11" fill="#000" text-anchor="start">136130</text>
<text x="872.0" y="1139.0" font-family="Arial" font-size="11" fill="#000" text-anchor="end">37</text>
<text x="764.0" y="1155.0" font-family="Arial" font-size="11" fill="#000" text-anchor="start">22654</text>
<text x="872.0" y="1155.0" font-family="Arial" font-size="11" fill="#000" text-anchor="end">791</text>
<text x="764.0" y="1179.0" font-family="Arial" font-size="11" fill="red" text-anchor="start">PA</text>
<rect x="1106.0" y="567.0" width="128" height="30.0" fill="#ADD8E6" stroke="#87CEEB" stroke-width="2" rx="5" ry="5"/>
<text x="1170.0" y="587.0" font-family="Arial" font-size="12" font-weight="bold" fill="#333" text-anchor="middle">JacksonNeely.1725</text>
<text x="1116.0" y="557" font-family="monospace" font-size="10" fill="#555" text-anchor="start">549=14-&gt;15</text>
<text x="1224.0" y="557" font-family="monospace" font-size="10" fill="#555" text-anchor="end">5</text>
<text x="1116.0" y="545" font-family="monospace" font-size="10" fill="#555" text-anchor="start">532=13-&gt;12</text>
<text x="1224.0" y="545" font-family="monospace" font-size="10" fill="#555" text-anchor="end">5</text>
<text x="1224.0" y="611.0" font-family="Arial" font-size="11" fill="#555" text-anchor="end">5</text>
<rect x="930.0" y="684.0" width="128" height="30.0" fill="#FFFFE0" stroke="#FFC0CB" stroke-width="2" rx="5" ry="5"/>
<text x="940.0" y="700.0" font-family="Arial" font-size="11" fill="#000" text-anchor="start">1031913</text>
<text x="1048.0" y="700.0" font-family="Arial" font-size="11" fill="#000" text-anchor="end">742</text>
<text x="940.0" y="728.0" font-family="Arial" font-size="11" fill="red" text-anchor="start">PA</text>
<rect x="1106.0" y="684.0" width="128" height="30.0" fill="#ADD8E6" stroke="#87CEEB" stroke-width="2" rx="5" ry="5"/>
<text x="1170.0" y="704.0" font-family="Arial" font-size="12" font-weight="bold" fill="#333" text-anchor="middle">SamuelNeely.1749</text>
<text x="1224.0" y="728.0" font-family="Arial" font-size="11" fill="#555" text-anchor="end">2</text>
<rect x="1106.0" y="789.0" width="128" height="42.0" fill="#FFFFE0" stroke="#FFC0CB" stroke-width="2" rx="5" ry="5"/>
<text x="1116.0" y="805.0" font-family="Arial" font-size="11" fill="#000" text-anchor="start">458233</text>
<text x="1224.0" y="805.0" font-family="Arial" font-size="11" fill="#000" text-anchor="end">111</text>
<text x="1116.0" y="821.0" font-family="Arial" font-size="11" fill="#000" text-anchor="start">542531</text>
<text x="1224.0" y="821.0" font-family="Arial" font-size="11" fill="#000" text-anchor="end">788</text>
<text x="1116.0" y="845.0" font-family="Arial" font-size="11" fill="red" text-anchor="start">PA</text>
<rect x="1282.0" y="684.0" width="128" height="30.0" fill="#ADD8E6" stroke="#87CEEB" stroke-width="2" rx="5" ry="5"/>
<text x="1346.0" y="704.0" font-family="Arial" font-size="12" font-weight="bold" fill="#333" text-anchor="middle">MatthewNeely.1775</text>
<text x="1292.0" y="674" font-family="monospace" font-size="10" fill="#555" text-anchor="start">651=11-&gt;10</text>
<text x="1400.0" y="674" font-family="monospace" font-size="10" fill="#555" text-anchor="end">2</text>
<text x="1400.0" y="728.0" font-family="Arial" font-size="11" fill="#555" text-anchor="end">2</text>
<rect x="1282.0" y="789.0" width="128" height="42.0" fill="#FFFFE0" stroke="#FFC0CB" stroke-width="2" rx="5" ry="5"/>
<text x="1292.0" y="805.0" font-family="Arial" font-size="11" fill="#000" text-anchor="start">212614</text>
<text x="1400.0" y="805.0" font-family="Arial" font-size="11" fill="#000" text-anchor="end">810</text>
<text x="1292.0" y="821.0" font-family="Arial" font-size="11" fill="#000" text-anchor="start">B496896</text>
<text x="1400.0" y="821.0" font-family="Arial" font-size="11" fill="#000" text-anchor="end">754</text>
<text x="1292.0" y="845.0" font-family="Arial" font-size="11" fill="red" text-anchor="start">PA</text>
<rect x="1612.0" y="567.0" width="128" height="30.0" fill="#ADD8E6" stroke="#87CEEB" stroke-width="2" rx="5" ry="5"/>
<text x="1676.0" y="587.0" font-family="Arial" font-size="12" font-weight="bold" fill="#333" text-anchor="middle">STR01.1725</text>
<text x="1622.0" y="557" font-family="monospace" font-size="10" fill="#555" text-anchor="start">651=11-&gt;10</text>
<text x="1730.0" y="557" font-family="monospace" font-size="10" fill="#555" text-anchor="end">5</text>
<text x="1730.0" y="611.0" font-family="Arial" font-size="11" fill="#555" text-anchor="end">6</text>
<rect x="1458.0" y="684.0" width="128" height="30.0" fill="#ADD8E6" stroke="#87CEEB" stroke-width="2" rx="5" ry="5"/>
<text x="1522.0" y="704.0" font-family="Arial" font-size="12" font-weight="bold" fill="#333" text-anchor="middle">JohnNeely.1727</text>
<text x="1576.0" y="728.0" font-family="Arial" font-size="11" fill="#555" text-anchor="end">1</text>
<rect x="1458.0" y="789.0" width="128" height="30.0" fill="#FFFFE0" stroke="#FFC0CB" stroke-width="2" rx="5" ry="5"/>
<text x="1468.0" y="805.0" font-family="Arial" font-size="11" fill="#000" text-anchor="start">286058</text>
<text x="1576.0" y="805.0" font-family="Arial" font-size="11" fill="#000" text-anchor="end">783</text>
<text x="1468.0" y="833.0" font-family="Arial" font-size="11" fill="red" text-anchor="start">PA</text>
<rect x="1766.0" y="684.0" width="128" height="46.0" fill="#ADD8E6" stroke="#87CEEB" stroke-width="2" rx="5" ry="5"/>
<text x="1830.0" y="704.0" font-family="Arial" font-size="12" font-weight="bold" fill="#333" text-anchor="middle">FTD58753.1695</text>
<text x="1830.0" y="722.0" font-family="Arial" font-size="12" font-weight="bold" fill="#333" text-anchor="middle">ThomasNeely.1723</text>
<text x="1884.0" y="744.0" font-family="Arial" font-size="11" fill="#555" text-anchor="end">5</text>
<rect x="1634.0" y="789.0" width="128" height="30.0" fill="#FFFFE0" stroke="#FFC0CB" stroke-width="2" rx="5" ry="5"/>
<text x="1644.0" y="805.0" font-family="Arial" font-size="11" fill="#000" text-anchor="start">71156</text>
<text x="1752.0" y="805.0" font-family="Arial" font-size="11" fill="#000" text-anchor="end">803</text>
<text x="1644.0" y="833.0" font-family="Arial" font-size="11" fill="red" text-anchor="start">PA</text>
<rect x="1898.0" y="789.0" width="128" height="46.0" fill="#ADD8E6" stroke="#87CEEB" stroke-width="2" rx="5" ry="5"/>
<text x="1962.0" y="809.0" font-family="Arial" font-size="12" font-weight="bold" fill="#333" text-anchor="middle">FTD59862.1780</text>
<text x="1962.0" y="827.0" font-family="Arial" font-size="12" font-weight="bold" fill="#333" text-anchor="middle">ThomasNeely.1780</text>
<text x="1908.0" y="779" font-family="monospace" font-size="10" fill="#555" text-anchor="start">712=21-&gt;20</text>
<text x="2016.0" y="779" font-family="monospace" font-size="10" fill="#555" text-anchor="end">3</text>
<text x="2016.0" y="849.0" font-family="Arial" font-size="11" fill="#555" text-anchor="end">4</text>
<rect x="1810.0" y="882.0" width="128" height="42.0" fill="#FFFFE0" stroke="#FFC0CB" stroke-width="2" rx="5" ry="5"/>
<text x="1820.0" y="898.0" font-family="Arial" font-size="11" fill="#000" text-anchor="start">164258</text>
<text x="1928.0" y="898.0" font-family="Arial" font-size="11" fill="#000" text-anchor="end">37</text>
<text x="1820.0" y="914.0" font-family="Arial" font-size="11" fill="#000" text-anchor="start">133480</text>
<text x="1928.0" y="914.0" font-family="Arial" font-size="11" fill="#000" text-anchor="end">802</text>
<text x="1820.0" y="938.0" font-family="Arial" font-size="11" fill="red" text-anchor="start">PA</text>
<rect x="1986.0" y="882.0" width="128" height="30.0" fill="#ADD8E6" stroke="#87CEEB" stroke-width="2" rx="5" ry="5"/>
<text x="2050.0" y="902.0" font-family="Arial" font-size="12" font-weight="bold" fill="#333" text-anchor="middle">STR02.1810</text>
<text x="1996.0" y="872" font-family="monospace" font-size="10" fill="#555" text-anchor="start">549=14-&gt;15</text>
<text x="2104.0" y="872" font-family="monospace" font-size="10" fill="#555" text-anchor="end">2</text>
<text x="2104.0" y="926.0" font-family="Arial" font-size="11" fill="#555" text-anchor="end">2</text>
<rect x="1986.0" y="964.0" width="128" height="42.0" fill="#FFFFE0" stroke="#FFC0CB" stroke-width="2" rx="5" ry="5"/>
<text x="1996.0" y="980.0" font-family="Arial" font-size="11" fill="#000" text-anchor="start">991341</text>
<text x="2104.0" y="980.0" font-family="Arial" font-size="11" fill="#000" text-anchor="end">789</text>
<text x="1996.0" y="996.0" font-family="Arial" font-size="11" fill="#000" text-anchor="start">B201693</text>
<text x="2104.0" y="996.0" font-family="Arial" font-size="11" fill="#000" text-anchor="end">809</text>
<text x="1996.0" y="1020.0" font-family="Arial" font-size="11" fill="red" text-anchor="start">PA</text>
<rect x="2492.0" y="466.0" width="128" height="30.0" fill="#ADD8E6" stroke="#87CEEB" stroke-width="2" rx="5" ry="5"/>
<text x="2556.0" y="486.0" font-family="Arial" font-size="12" font-weight="bold" fill="#333" text-anchor="middle">MF9446.1680</text>
<text x="2502.0" y="456" font-family="monospace" font-size="10" fill="#555" text-anchor="start">444=13-&gt;12</text>
<text x="2610.0" y="456" font-family="monospace" font-size="10" fill="#555" text-anchor="end">6</text>
<text x="2502.0" y="444" font-family="monospace" font-size="10" fill="#555" text-anchor="start">542=13-&gt;12</text>
<text x="2610.0" y="444" font-family="monospace" font-size="10" fill="#555" text-anchor="end">4</text>
<text x="2502.0" y="432" font-family="monospace" font-size="10" fill="#555" text-anchor="start">285=12-&gt;13</text>
<text x="2610.0" y="432" font-family="monospace" font-size="10" fill="#555" text-anchor="end">4</text>
<text x="2610.0" y="510.0" font-family="Arial" font-size="11" fill="#555" text-anchor="end">6</text>
<rect x="2294.0" y="567.0" width="128" height="30.0" fill="#ADD8E6" stroke="#87CEEB" stroke-width="2" rx="5" ry="5"/>
<text x="2358.0" y="587.0" font-family="Arial" font-size="12" font-weight="bold" fill="#333" text-anchor="middle">FTC19228.1758</text>
<text x="2304.0" y="557" font-family="monospace" font-size="10" fill="#555" text-anchor="start">458=19-&gt;18</text>
<text x="2412.0" y="557" font-family="monospace" font-size="10" fill="#555" text-anchor="end">4</text>
<text x="2304.0" y="545" font-family="monospace" font-size="10" fill="#555" text-anchor="start">449=28-&gt;29</text>
<text x="2412.0" y="545" font-family="monospace" font-size="10" fill="#555" text-anchor="end">4</text>
<text x="2304.0" y="533" font-family="monospace" font-size="10" fill="#555" text-anchor="start">612u5=26-&gt;27</text>
<text x="2412.0" y="533" font-family="monospace" font-size="10" fill="#555" text-anchor="end">3</text>
<text x="2412.0" y="611.0" font-family="Arial" font-size="11" fill="#555" text-anchor="end">4</text>
<rect x="2162.0" y="684.0" width="128" height="30.0" fill="#FFFFE0" stroke="#FFC0CB" stroke-width="2" rx="5" ry="5"/>
<text x="2172.0" y="700.0" font-family="Arial" font-size="11" fill="#000" text-anchor="start">1027791</text>
<text x="2280.0" y="700.0" font-family="Arial" font-size="11" fill="#000" text-anchor="end">769</text>
<text x="2172.0" y="728.0" font-family="Arial" font-size="11" fill="red" text-anchor="start">PA</text>
<rect x="2426.0" y="684.0" width="128" height="46.0" fill="#ADD8E6" stroke="#87CEEB" stroke-width="2" rx="5" ry="5"/>
<text x="2490.0" y="704.0" font-family="Arial" font-size="12" font-weight="bold" fill="#333" text-anchor="middle">FTC19221.1791</text>
<text x="2490.0" y="722.0" font-family="Arial" font-size="12" font-weight="bold" fill="#333" text-anchor="middle">JosephNeely.1791</text>
<text x="2436.0" y="674" font-family="monospace" font-size="10" fill="#555" text-anchor="start">112=14-&gt;15</text>
<text x="2544.0" y="674" font-family="monospace" font-size="10" fill="#555" text-anchor="end">2</text>
<text x="2436.0" y="662" font-family="monospace" font-size="10" fill="#555" text-anchor="start">595=8-&gt;9</text>
<text x="2544.0" y="662" font-family="monospace" font-size="10" fill="#555" text-anchor="end">2</text>
<text x="2544.0" y="744.0" font-family="Arial" font-size="11" fill="#555" text-anchor="end">3</text>
<rect x="2426.0" y="789.0" width="128" height="30.0" fill="#ADD8E6" stroke="#87CEEB" stroke-width="2" rx="5" ry="5"/>
<text x="2490.0" y="809.0" font-family="Arial" font-size="12" font-weight="bold" fill="#333" text-anchor="middle">RobertNeely.1822</text>
<text x="2544.0" y="833.0" font-family="Arial" font-size="11" fill="#555" text-anchor="end">3</text>
<rect x="2338.0" y="882.0" width="128" height="30.0" fill="#FFFFE0" stroke="#FFC0CB" stroke-width="2" rx="5" ry="5"/>
<text x="2348.0" y="898.0" font-family="Arial" font-size="11" fill="#000" text-anchor="start">317323</text>
<text x="2456.0" y="898.0" font-family="Arial" font-size="11" fill="#000" text-anchor="end">67</text>
<text x="2348.0" y="926.0" font-family="Arial" font-size="11" fill="red" text-anchor="start">PA</text>
<rect x="2514.0" y="882.0" width="128" height="30.0" fill="#ADD8E6" stroke="#87CEEB" stroke-width="2" rx="5" ry="5"/>
<text x="2578.0" y="902.0" font-family="Arial" font-size="12" font-weight="bold" fill="#333" text-anchor="middle">STR03.1852</text>
<text x="2524.0" y="872" font-family="monospace" font-size="10" fill="#555" text-anchor="start">570=19-&gt;18</text>
<text x="2632.0" y="872" font-family="monospace" font-size="10" fill="#555" text-anchor="end">2</text>
<text x="2632.0" y="926.0" font-family="Arial" font-size="11" fill="#555" text-anchor="end">2</text>
<rect x="2514.0" y="964.0" width="128" height="42.0" fill="#FFFFE0" stroke="#FFC0CB" stroke-width="2" rx="5" ry="5"/>
<text x="2524.0" y="980.0" font-family="Arial" font-size="11" fill="#000" text-anchor="start">127866</text>
<text x="2632.0" y="980.0" font-family="Arial" font-size="11" fill="#000" text-anchor="end">791</text>
<text x="2524.0" y="996.0" font-family="Arial" font-size="11" fill="#000" text-anchor="start">972148</text>
<text x="2632.0" y="996.0" font-family="Arial" font-size="11" fill="#000" text-anchor="end">803</text>
<text x="2524.0" y="1020.0" font-family="Arial" font-size="11" fill="red" text-anchor="start">PA</text>
<rect x="2690.0" y="567.0" width="128" height="30.0" fill="#ADD8E6" stroke="#87CEEB" stroke-width="2" rx="5" ry="5"/>
<text x="2754.0" y="587.0" font-family="Arial" font-size="12" font-weight="bold" fill="#333" text-anchor="middle">STR04.1770</text>
<text x="2700.0" y="557" font-family="monospace" font-size="10" fill="#555" text-anchor="start">452=30-&gt;31</text>
<text x="2808.0" y="557" font-family="monospace" font-size="10" fill="#555" text-anchor="end">1</text>
<text x="2700.0" y="545" font-family="monospace" font-size="10" fill="#555" text-anchor="start">269=11-&gt;10</text>
<text x="2808.0" y="545" font-family="monospace" font-size="10" fill="#555" text-anchor="end">1</text>
<text x="2700.0" y="533" font-family="monospace" font-size="10" fill="#555" text-anchor="start">960=17-&gt;19</text>
<text x="2808.0" y="533" font-family="monospace" font-size="10" fill="#555" text-anchor="end">1</text>
<text x="2808.0" y="611.0" font-family="Arial" font-size="11" fill="#555" text-anchor="end">2</text>
<rect x="2690.0" y="684.0" width="128" height="42.0" fill="#FFFFE0" stroke="#FFC0CB" stroke-width="2" rx="5" ry="5"/>
<text x="2700.0" y="700.0" font-family="Arial" font-size="11" fill="#000" text-anchor="start">B1255475</text>
<text x="2808.0" y="700.0" font-family="Arial" font-size="11" fill="#000" text-anchor="end">764</text>
<text x="2700.0" y="716.0" font-family="Arial" font-size="11" fill="#000" text-anchor="start">137035</text>
<text x="2808.0" y="716.0" font-family="Arial" font-size="11" fill="#000" text-anchor="end">67</text>
<text x="2700.0" y="740.0" font-family="Arial" font-size="11" fill="red" text-anchor="start">PA</text>
<rect x="2866.0" y="466.0" width="128" height="30.0" fill="#ADD8E6" stroke="#87CEEB" stroke-width="2" rx="5" ry="5"/>
<text x="2930.0" y="486.0" font-family="Arial" font-size="12" font-weight="bold" fill="#333" text-anchor="middle">FTB94369.1675</text>
<text x="2984.0" y="510.0" font-family="Arial" font-size="11" fill="#555" text-anchor="end">3</text>
<rect x="2866.0" y="567.0" width="128" height="58.0" fill="#FFFFE0" stroke="#FFC0CB" stroke-width="2" rx="5" ry="5"/>
<text x="2876.0" y="583.0" font-family="Arial" font-size="11" fill="#000" text-anchor="start">613073</text>
<text x="2984.0" y="583.0" font-family="Arial" font-size="11" fill="#000" text-anchor="end">807</text>
<text x="2876.0" y="599.0" font-family="Arial" font-size="11" fill="#000" text-anchor="start">B223536</text>
<text x="2984.0" y="599.0" font-family="Arial" font-size="11" fill="#000" text-anchor="end">805</text>
<text x="2876.0" y="615.0" font-family="Arial" font-size="11" fill="#000" text-anchor="start">N31941</text>
<text x="2984.0" y="615.0" font-family="Arial" font-size="11" fill="#000" text-anchor="end">798</text>
<text x="2876.0" y="639.0" font-family="Arial" font-size="11" fill="red" text-anchor="start">PA</text>
<rect x="3042.0" y="466.0" width="128" height="30.0" fill="#ADD8E6" stroke="#87CEEB" stroke-width="2" rx="5" ry="5"/>
<text x="3106.0" y="486.0" font-family="Arial" font-size="12" font-weight="bold" fill="#333" text-anchor="middle">FT255765.1660</text>
<text x="3052.0" y="456" font-family="monospace" font-size="10" fill="#555" text-anchor="start">457=17-&gt;16</text>
<text x="3160.0" y="456" font-family="monospace" font-size="10" fill="#555" text-anchor="end">2</text>
<text x="3160.0" y="510.0" font-family="Arial" font-size="11" fill="#555" text-anchor="end">2</text>
<rect x="3042.0" y="567.0" width="128" height="30.0" fill="#ADD8E6" stroke="#87CEEB" stroke-width="2" rx="5" ry="5"/>
<text x="3106.0" y="587.0" font-family="Arial" font-size="12" font-weight="bold" fill="#333" text-anchor="middle">JohnNeely.1755</text>
<text x="3160.0" y="611.0" font-family="Arial" font-size="11" fill="#555" text-anchor="end">2</text>
<rect x="3042.0" y="684.0" width="128" height="42.0" fill="#FFFFE0" stroke="#FFC0CB" stroke-width="2" rx="5" ry="5"/>
<text x="3052.0" y="700.0" font-family="Arial" font-size="11" fill="#000" text-anchor="start">225476</text>
<text x="3160.0" y="700.0" font-family="Arial" font-size="11" fill="#000" text-anchor="end">735</text>
<text x="3052.0" y="716.0" font-family="Arial" font-size="11" fill="#000" text-anchor="start">541320</text>
<text x="3160.0" y="716.0" font-family="Arial" font-size="11" fill="#000" text-anchor="end">807</text>
<text x="3052.0" y="740.0" font-family="Arial" font-size="11" fill="red" text-anchor="start">PA</text>
<rect x="3218.0" y="466.0" width="128" height="30.0" fill="#ADD8E6" stroke="#87CEEB" stroke-width="2" rx="5" ry="5"/>
<text x="3282.0" y="486.0" font-family="Arial" font-size="12" font-weight="bold" fill="#333" text-anchor="middle">STR05.1810</text>
<text x="3228.0" y="456" font-family="monospace" font-size="10" fill="#555" text-anchor="start">549=15-&gt;14</text>
<text x="3336.0" y="456" font-family="monospace" font-size="10" fill="#555" text-anchor="end">1</text>
<text x="3228.0" y="444" font-family="monospace" font-size="10" fill="#555" text-anchor="start">638=11-&gt;10</text>
<text x="3336.0" y="444" font-family="monospace" font-size="10" fill="#555" text-anchor="end">1</text>
<text x="3228.0" y="432" font-family="monospace" font-size="10" fill="#555" text-anchor="start">463=24-&gt;23</text>
<text x="3336.0" y="432" font-family="monospace" font-size="10" fill="#555" text-anchor="end">1</text>
<text x="3228.0" y="420" font-family="monospace" font-size="10" fill="#555" text-anchor="start">233=10-&gt;11</text>
<text x="3336.0" y="420" font-family="monospace" font-size="10" fill="#555" text-anchor="end">1</text>
<text x="3228.0" y="408" font-family="monospace" font-size="10" fill="#555" text-anchor="start">393u3=24-&gt;23</text>
<text x="3336.0" y="408" font-family="monospace" font-size="10" fill="#555" text-anchor="end">1</text>
<text x="3228.0" y="396" font-family="monospace" font-size="10" fill="#555" text-anchor="start">627u3=22-&gt;20</text>
<text x="3336.0" y="396" font-family="monospace" font-size="10" fill="#555" text-anchor="end">1</text>
<text x="3336.0" y="510.0" font-family="Arial" font-size="11" fill="#555" text-anchor="end">3</text>
<rect x="3218.0" y="567.0" width="128" height="58.0" fill="#FFFFE0" stroke="#FFC0CB" stroke-width="2" rx="5" ry="5"/>
<text x="3228.0" y="583.0" font-family="Arial" font-size="11" fill="#000" text-anchor="start">999290</text>
<text x="3336.0" y="583.0" font-family="Arial" font-size="11" fill="#000" text-anchor="end">802</text>
<text x="3228.0" y="599.0" font-family="Arial" font-size="11" fill="#000" text-anchor="start">324852</text>
<text x="3336.0" y="599.0" font-family="Arial" font-size="11" fill="#000" text-anchor="end">37</text>
<text x="3228.0" y="615.0" font-family="Arial" font-size="11" fill="#000" text-anchor="start">911337</text>
<text x="3336.0" y="615.0" font-family="Arial" font-size="11" fill="#000" text-anchor="end">37</text>
<text x="3228.0" y="639.0" font-family="Arial" font-size="11" fill="red" text-anchor="start">PA</text>
<rect x="3570.0" y="329.0" width="128" height="30.0" fill="#ADD8E6" stroke="#87CEEB" stroke-width="2" rx="5" ry="5"/>
<text x="3634.0" y="349.0" font-family="Arial" font-size="12" font-weight="bold" fill="#333" text-anchor="middle">FT49014.1713</text>
<text x="3580.0" y="319" font-family="monospace" font-size="10" fill="#555" text-anchor="start">710=36-&gt;35</text>
<text x="3688.0" y="319" font-family="monospace" font-size="10" fill="#555" text-anchor="end">6</text>
<text x="3688.0" y="373.0" font-family="Arial" font-size="11" fill="#555" text-anchor="end">8</text>
<rect x="3394.0" y="466.0" width="128" height="30.0" fill="#ADD8E6" stroke="#87CEEB" stroke-width="2" rx="5" ry="5"/>
<text x="3458.0" y="486.0" font-family="Arial" font-size="12" font-weight="bold" fill="#333" text-anchor="middle">DarwinNealey.1919</text>
<text x="3404.0" y="456" font-family="monospace" font-size="10" fill="#555" text-anchor="start">YCAIIb=23-&gt;21</text>
<text x="3512.0" y="456" font-family="monospace" font-size="10" fill="#555" text-anchor="end">2</text>
<text x="3512.0" y="510.0" font-family="Arial" font-size="11" fill="#555" text-anchor="end">2</text>
<rect x="3394.0" y="567.0" width="128" height="42.0" fill="#FFFFE0" stroke="#FFC0CB" stroke-width="2" rx="5" ry="5"/>
<text x="3404.0" y="583.0" font-family="Arial" font-size="11" fill="#000" text-anchor="start">1010437</text>
<text x="3512.0" y="583.0" font-family="Arial" font-size="11" fill="#000" text-anchor="end">809</text>
<text x="3404.0" y="599.0" font-family="Arial" font-size="11" fill="#000" text-anchor="start">388916</text>
<text x="3512.0" y="599.0" font-family="Arial" font-size="11" fill="#000" text-anchor="end">37</text>
<text x="3404.0" y="623.0" font-family="Arial" font-size="11" fill="red" text-anchor="start">PA</text>
<rect x="3570.0" y="466.0" width="128" height="30.0" fill="#ADD8E6" stroke="#87CEEB" stroke-width="2" rx="5" ry="5"/>
<text x="3634.0" y="486.0" font-family="Arial" font-size="12" font-weight="bold" fill="#333" text-anchor="middle">FT49576.1859</text>
<text x="3580.0" y="456" font-family="monospace" font-size="10" fill="#555" text-anchor="start">385b=14-&gt;15</text>
<text x="3688.0" y="456" font-family="monospace" font-size="10" fill="#555" text-anchor="end">3</text>
<text x="3580.0" y="444" font-family="monospace" font-size="10" fill="#555" text-anchor="start">458=19-&gt;18</text>
<text x="3688.0" y="444" font-family="monospace" font-size="10" fill="#555" text-anchor="end">3</text>
<text x="3580.0" y="432" font-family="monospace" font-size="10" fill="#555" text-anchor="start">YGA10=13-&gt;12</text>
<text x="3688.0" y="432" font-family="monospace" font-size="10" fill="#555" text-anchor="end">2</text>
<text x="3688.0" y="510.0" font-family="Arial" font-size="11" fill="#555" text-anchor="end">3</text>
<rect x="3570.0" y="567.0" width="128" height="30.0" fill="#ADD8E6" stroke="#87CEEB" stroke-width="2" rx="5" ry="5"/>
<text x="3634.0" y="587.0" font-family="Arial" font-size="12" font-weight="bold" fill="#333" text-anchor="middle">WilliamMcNeal.1905</text>
<text x="3688.0" y="611.0" font-family="Arial" font-size="11" fill="#555" text-anchor="end">3</text>
<rect x="3570.0" y="684.0" width="128" height="58.0" fill="#FFFFE0" stroke="#FFC0CB" stroke-width="2" rx="5" ry="5"/>
<text x="3580.0" y="700.0" font-family="Arial" font-size="11" fill="#000" text-anchor="start">382266</text>
<text x="3688.0" y="700.0" font-family="Arial" font-size="11" fill="#000" text-anchor="end">37</text>
<text x="3580.0" y="716.0" font-family="Arial" font-size="11" fill="#000" text-anchor="start">160799</text>
<text x="3688.0" y="716.0" font-family="Arial" font-size="11" fill="#000" text-anchor="end">802</text>
<text x="3580.0" y="732.0" font-family="Arial" font-size="11" fill="#000" text-anchor="start">480118</text>
<text x="3688.0" y="732.0" font-family="Arial" font-size="11" fill="#000" text-anchor="end">797</text>
<text x="3580.0" y="756.0" font-family="Arial" font-size="11" fill="red" text-anchor="start">PA</text>
<rect x="3746.0" y="466.0" width="128" height="30.0" fill="#ADD8E6" stroke="#87CEEB" stroke-width="2" rx="5" ry="5"/>
<text x="3810.0" y="486.0" font-family="Arial" font-size="12" font-weight="bold" fill="#333" text-anchor="middle">STR06.1743</text>
<text x="3756.0" y="456" font-family="monospace" font-size="10" fill="#555" text-anchor="start">FTY572=17-&gt;18</text>
<text x="3864.0" y="456" font-family="monospace" font-size="10" fill="#555" text-anchor="end">1</text>
<text x="3864.0" y="510.0" font-family="Arial" font-size="11" fill="#555" text-anchor="end">3</text>
<rect x="3746.0" y="567.0" width="128" height="58.0" fill="#FFFFE0" stroke="#FFC0CB" stroke-width="2" rx="5" ry="5"/>
<text x="3756.0" y="583.0" font-family="Arial" font-size="11" fill="#000" text-anchor="start">458001</text>
<text x="3864.0" y="583.0" font-family="Arial" font-size="11" fill="#000" text-anchor="end">818</text>
<text x="3756.0" y="599.0" font-family="Arial" font-size="11" fill="#000" text-anchor="start">544698</text>
<text x="3864.0" y="599.0" font-family="Arial" font-size="11" fill="#000" text-anchor="end">735</text>
<text x="3756.0" y="615.0" font-family="Arial" font-size="11" fill="#000" text-anchor="start">909694</text>
<text x="3864.0" y="615.0" font-family="Arial" font-size="11" fill="#000" text-anchor="end">111</text>
<text x="3756.0" y="639.0" font-family="Arial" font-size="11" fill="red" text-anchor="start">PA</text>
</svg>
