<svg xmlns="http://www.w3.org/2000/svg" width="404" height="454" style="background-color: white;">
<text x="354.0" y="30.0" font-family="Arial" font-size="12" font-weight="bold" fill="#333" text-anchor="end">23-Jul-2026</text>
<path d="M 202.0 118.0 L 202.0 138.0 L 202.0 138.0 L 202.0 158.0" fill="none" stroke="#8ab4f8" stroke-width="3"/>
<path d="M 202.0 204.0 L 202.0 224.0 L 114.0 224.0 L 114.0 244.0" fill="none" stroke="#8ab4f8" stroke-width="3"/>
<path d="M 202.0 204.0 L 202.0 224.0 L 290.0 224.0 L 290.0 244.0" fill="none" stroke="#8ab4f8" stroke-width="3"/>
<path d="M 290.0 274.0 L 290.0 294.0 L 290.0 294.0 L 290.0 342.0" fill="none" stroke="#8ab4f8" stroke-width="3"/>
<rect x="138.0" y="50.0" width="128" height="68.0" fill="#ADD8E6" stroke="#87CEEB" stroke-width="2" rx="5" ry="5"/>
<text x="202.0" y="70.0" font-family="Arial" font-size="12" font-weight="bold" fill="#333" text-anchor="middle">Group 7</text>
<text x="202.0" y="88.0" font-family="Arial" font-size="12" fill="#333" text-anchor="middle">5 kits</text>
<text x="202.0" y="106.0" font-family="Arial" font-size="12" fill="#333" text-anchor="middle">Haplogroup R</text>
<text x="256.0" y="132.0" font-family="Arial" font-size="11" fill="#555" text-anchor="end">5</text>
<rect x="138.0" y="158.0" width="128" height="46.0" fill="#ADD8E6" stroke="#87CEEB" stroke-width="2" rx="5" ry="5"/>
<text x="202.0" y="178.0" font-family="Arial" font-size="12" font-weight="bold" fill="#333" text-anchor="middle">BY2604.1786</text>
<text x="202.0" y="196.0" font-family="Arial" font-size="12" font-weight="bold" fill="#333" text-anchor="middle">JohnNeely.1786</text>
<text x="256.0" y="218.0" font-family="Arial" font-size="11" fill="#555" text-anchor="end">5</text>
<rect x="50.0" y="244.0" width="128" height="58.0" fill="#FFFFE0" stroke="#FFC0CB" stroke-width="2" rx="5" ry="5"/>
<text x="60.0" y="260.0" font-family="Arial" font-size="11" fill="#000" text-anchor="start">1039691</text>
<text x="168.0" y="260.0" font-family="Arial" font-size="11" fill="#000" text-anchor="end">762</text>
<text x="60.0" y="276.0" font-family="Arial" font-size="11" fill="#000" text-anchor="start">1040871</text>
<text x="168.0" y="276.0" font-family="Arial" font-size="11" fill="#000" text-anchor="end">37</text>
<text x="60.0" y="292.0" font-family="Arial" font-size="11" fill="#000" text-anchor="start">111892</text>
<text x="168.0" y="292.0" font-family="Arial" font-size="11" fill="#000" text-anchor="end">111</text>
<rect x="226.0" y="244.0" width="128" height="30.0" fill="#ADD8E6" stroke="#87CEEB" stroke-width="2" rx="5" ry="5"/>
<text x="290.0" y="264.0" font-family="Arial" font-size="12" font-weight="bold" fill="#333" text-anchor="middle">WalterNeely.1871</text>
<text x="344.0" y="288.0" font-family="Arial" font-size="11" fill="#555" text-anchor="end">2</text>
<rect x="226.0" y="342.0" width="128" height="42.0" fill="#FFFFE0" stroke="#FFC0CB" stroke-width="2" rx="5" ry="5"/>
<text x="236.0" y="358.0" font-family="Arial" font-size="11" fill="#000" text-anchor="start">271854</text>
<text x="344.0" y="358.0" font-family="Arial" font-size="11" fill="#000" text-anchor="end">763</text>
<text x="236.0" y="374.0" font-family="Arial" font-size="11" fill="#000" text-anchor="start">460858</text>
<text x="344.0" y="374.0" font-family="Arial" font-size="11" fill="#000" text-anchor="end">792</text>
</svg>
